HIERARCHY
ROOT Hips
{
    OFFSET 0.000000 0.000000 0.000000
    CHANNELS 6 Xposition Yposition Zposition Zrotation Xrotation Yrotation
    JOINT Ab
    {
        OFFSET -0.000000 8.084561 -0.000000
        CHANNELS 3 Zrotation Xrotation Yrotation
        JOINT Chest
        {
            OFFSET -0.000000 25.006802 -0.000000
            CHANNELS 3 Zrotation Xrotation Yrotation
            JOINT Neck
            {
                OFFSET -0.000000 25.006802 0.000000
                CHANNELS 3 Zrotation Xrotation Yrotation
                JOINT Head
                {
                    OFFSET -0.000000 10.755555 0.000000
                    CHANNELS 3 Zrotation Xrotation Yrotation
                    End Site
                    {
                        OFFSET -0.000000 16.622223 0.000000
                    }
                }
            }
            JOINT LeftCollar
            {
                OFFSET -0.000000 25.006802 0.000000
                CHANNELS 3 Zrotation Xrotation Yrotation
                JOINT LeftShoulder
                {
                    OFFSET 19.555553 -0.000000 0.000000
                    CHANNELS 3 Zrotation Xrotation Yrotation
                    JOINT LeftElbow
                    {
                        OFFSET 27.182800 0.000000 0.000000
                        CHANNELS 3 Zrotation Xrotation Yrotation
                        JOINT LeftWrist
                        {
                            OFFSET 23.315706 0.000000 0.000000
                            CHANNELS 3 Zrotation Xrotation Yrotation
                            End Site
                            {
                                OFFSET 0.000000 -14.666668 0.000000
                            }
                        }
                    }
                }
            }
            JOINT RightCollar
            {
                OFFSET -0.000000 25.006802 0.000000
                CHANNELS 3 Zrotation Xrotation Yrotation
                JOINT RightShoulder
                {
                    OFFSET -19.555553 0.000000 0.000000
                    CHANNELS 3 Zrotation Xrotation Yrotation
                    JOINT RightElbow
                    {
                        OFFSET -27.182800 0.000000 0.000000
                        CHANNELS 3 Zrotation Xrotation Yrotation
                        JOINT RightWrist
                        {
                            OFFSET -23.315706 0.000000 0.000000
                            CHANNELS 3 Zrotation Xrotation Yrotation
                            End Site
                            {
                                OFFSET -0.000000 -14.666668 0.000000
                            }
                        }
                    }
                }
            }
        }
    }
    JOINT LeftHip
    {
        OFFSET 11.733333 0.000000 0.000000
        CHANNELS 3 Zrotation Xrotation Yrotation
        JOINT LeftKnee
        {
            OFFSET -0.000000 -40.868771 0.000000
            CHANNELS 3 Zrotation Xrotation Yrotation
            JOINT LeftAnkle
            {
                OFFSET -0.000000 -44.433651 0.000000
                CHANNELS 3 Zrotation Xrotation Yrotation
                End Site
                {
                    OFFSET -0.000000 -4.888888 16.622223
                }
            }
        }
    }
    JOINT RightHip
    {
        OFFSET -11.733333 0.000000 0.000000
        CHANNELS 3 Zrotation Xrotation Yrotation
        JOINT RightKnee
        {
            OFFSET -0.000000 -40.868771 0.000000
            CHANNELS 3 Zrotation Xrotation Yrotation
            JOINT RightAnkle
            {
                OFFSET -0.000000 -44.433651 0.000000
                CHANNELS 3 Zrotation Xrotation Yrotation
                End Site
                {
                    OFFSET -0.000000 -4.888888 16.622223
                }
            }
        }
    }
}
MOTION
Frames:    8
Frame Time:    0.010000
-2.36193600 88.60796400 190.21118200 1.72120800 -1.78630200 177.37313800 1.29923500 0.49574100 -1.95990600 -0.58938000 9.32235000 -1.90537600 0.42238700 -19.59341400 1.18654500 3.22913800 5.30641700 0.96037900 -21.51229300 -1.51630400 7.91221300 -60.01672400 27.34044100 -3.40707800 14.90727400 -5.42847500 -39.72680700 84.49906900 0.64127700 -20.74732800 22.74729500 -1.40774000 -6.85070700 57.99168400 44.66507000 7.90307900 -22.30827300 -6.55434600 32.46518700 -86.94214600 -5.29360200 19.28844500 3.09526000 -2.88892100 -2.02608100 -0.33026600 11.69099900 -2.34518200 -6.89469400 -11.46962100 21.45741300 -0.74254000 -9.17415900 -0.03785200 -1.24985500 21.27583100 8.06381000 -2.95254100 -18.31070900 -23.24878900 
-2.37916600 88.59651200 190.18258700 1.70557500 -1.80329800 177.42994700 1.30712100 0.52975500 -1.99751100 -0.57029900 9.29373600 -1.94376100 0.17369000 -19.71219600 1.06940900 3.44090100 5.49959000 0.87004400 -21.51638200 -1.48862700 7.89014800 -60.09806400 27.09959200 -3.30794800 14.76552800 -5.34767600 -39.67488900 84.57804100 0.56547500 -20.90254600 22.75902600 -1.37464200 -6.89693100 57.76989400 44.74702800 8.12518000 -22.19636200 -6.52409400 32.57504700 -86.98629000 -5.27980200 19.27152300 3.08011900 -2.98579800 -2.13459300 -0.37667600 11.86790400 -2.38120400 -6.89330200 -11.67490200 21.55244600 -0.76928600 -9.26271000 -0.06785500 -1.24882300 21.48262600 8.17039500 -2.78882400 -18.78701600 -23.36900300 
-2.39666200 88.58560900 190.14109800 1.68268300 -1.81441000 177.44485500 1.30753100 0.58651200 -2.00124200 -0.57761600 9.23209100 -1.94713100 -0.03993600 -19.88835100 0.96612800 3.61950100 5.79350400 0.78508600 -21.48923700 -1.50483200 7.91644100 -60.21819700 26.91714500 -3.19320000 14.73744000 -5.36082000 -39.69330600 84.57843000 0.47396100 -21.06848100 22.76834300 -1.37577100 -6.92608800 57.57685900 44.95223200 8.34612800 -22.25577700 -6.56183900 32.61470400 -87.03517900 -5.39711000 19.17354200 3.05807100 -3.04728000 -2.20032300 -0.41334400 12.01459100 -2.42825700 -6.86012300 -11.84986400 21.64599000 -0.80183700 -9.31870000 -0.00820600 -1.22022800 21.64851000 8.21817900 -2.84551300 -19.16676300 -23.64504600 
-2.42069500 88.57278400 190.08227500 1.67584800 -1.78134100 177.45855700 1.30298500 0.63935400 -1.98397600 -0.54540200 9.25600500 -1.93224000 -0.35056500 -20.13961600 0.78966200 3.84882900 6.15386600 0.63914000 -21.49390000 -1.54008000 7.98834600 -60.25452400 27.27524600 -3.18142100 15.01337000 -5.48216400 -39.49206500 84.45077500 0.32706500 -20.82191500 22.73991600 -1.41686700 -6.98502900 57.40431600 45.13134800 8.57615800 -22.42137900 -6.64366100 32.63865700 -86.37795300 -6.08594100 18.94615200 3.04338600 -3.04521800 -2.26590500 -0.42927700 12.16744100 -2.57514400 -6.76167900 -12.02216200 21.78821900 -0.81931700 -9.30112800 -0.00471600 -1.20558000 21.75604800 8.17538300 -3.06096600 -19.44576300 -23.73979600 
-2.44767800 88.55989800 190.02655000 1.63909100 -1.81317700 177.49987800 1.28632000 0.64335800 -2.00570900 -0.52830000 9.23283500 -1.95634800 -0.67833800 -20.32148700 0.59250200 4.10209200 6.46331500 0.46974400 -21.50553100 -1.50711200 8.00246800 -60.29135500 27.34758000 -3.13244100 15.04895500 -5.44353100 -39.34779700 84.50289200 0.23426200 -20.70232200 22.74778000 -1.38331100 -7.03622700 57.17984000 45.26040300 8.83973500 -22.30411900 -6.62152900 32.69125000 -86.65956900 -6.22541000 18.90794800 2.98926100 -3.13888900 -2.39009300 -0.45057000 12.35162000 -2.60543000 -6.76276400 -12.23845500 21.84880400 -0.88115100 -9.32977100 -0.01316000 -1.18671100 21.84425400 8.22856500 -3.05035200 -19.73370000 -23.86909300 
-2.47648700 88.54936200 189.96200600 1.61968700 -1.82981300 177.50219700 1.27211000 0.64924500 -1.99154800 -0.49213800 9.27487500 -1.94282300 -1.08927200 -20.65246200 0.36410200 4.43816100 6.91806800 0.29068100 -21.52033400 -1.53746200 8.11113100 -60.31267900 27.69709200 -3.16151300 15.34382800 -5.56647100 -39.20773300 84.37130000 0.13264100 -20.43609400 22.72468900 -1.40039500 -7.03340500 57.02481100 45.35537700 9.08330600 -21.98402200 -6.49150900 32.76706700 -87.59786200 -6.58205300 20.44242300 2.95443900 -3.20724200 -2.21665600 -0.42634800 12.55011500 -2.92403100 -6.74394500 -12.46651700 21.95557200 -0.92051500 -9.32414400 -0.00118400 -1.17661900 21.89907600 8.29500100 -2.97599600 -20.05123500 -23.95014000 
-2.50284800 88.53771200 189.89205900 1.60898100 -1.84943700 177.50029000 1.28352400 0.67989000 -1.99620600 -0.48191500 9.24684800 -1.94853700 -1.56324000 -20.85166200 0.12600800 4.90836400 7.27259200 0.07759300 -21.52516900 -1.56641500 8.17672400 -60.35070800 27.93259400 -3.09533500 15.43260000 -5.55375900 -39.03720500 84.71373700 -0.06115900 -20.06423600 22.71439900 -1.43364700 -7.07163900 56.83355700 45.57871600 9.33652300 -22.06808700 -6.58612300 32.85533100 -87.58298500 -6.53184700 20.34466600 2.93343900 -3.25494100 -2.29321000 -0.46378900 12.71116500 -2.94416700 -6.68212500 -12.67242000 22.01884800 -0.95153200 -9.31621600 -0.03160000 -1.17130100 21.94404000 8.29153600 -2.99121000 -20.38033300 -23.96899400 
-2.53565500 88.52578000 189.79892000 1.60980500 -1.82824700 177.46530200 1.33422200 0.75605400 -1.97777300 -0.53240100 9.20422000 -1.92548300 -1.79526200 -21.07136300 -0.02265600 5.10592900 7.61370900 -0.03982800 -21.53982200 -1.58852300 8.28705900 -60.35533900 28.18431700 -3.02203400 15.68390100 -5.64834600 -38.98139200 84.16632100 -0.02287900 -20.08804500 22.74424600 -1.39747900 -7.06454000 56.63861800 45.76557900 9.58291700 -22.07377400 -6.63061300 33.03955100 -87.73580200 -5.81064200 20.74441500 2.91167400 -3.21175800 -2.34566500 -0.48216200 12.81369700 -2.94690900 -6.63794700 -12.90870400 22.08452000 -0.97533600 -9.23165600 0.02301300 -1.15278200 21.96017100 8.39319700 -3.18510700 -20.60756500 -24.18189600 
